<?xml version="1.0" encoding="iso-8859-1"?>
<!-- Generator: Adobe Illustrator 19.0.0, SVG Export Plug-In . SVG Version: 6.00 Build 0)  -->
<svg version="1.1" id="Capa_1" xmlns="http://www.w3.org/2000/svg" xmlns:xlink="http://www.w3.org/1999/xlink" x="0px" y="0px"
	 viewBox="0 0 512 512" style="enable-background:new 0 0 512 512;" xml:space="preserve">
<g>
	<path style="fill:#E6E6E6;" d="M223.536,153.942c0-11.924-9.886-21.811-21.811-21.811H161.42v43.622h40.305
		C213.651,175.753,223.536,165.867,223.536,153.942z"/>
	<path style="fill:#FF874F;" d="M201.726,175.753h-40.305v-43.622h40.305c11.925,0,21.811,9.887,21.811,21.811
		S213.651,175.753,201.726,175.753L201.726,175.753z M161.421,95.78h-36.352V281.49h36.352v-69.385h40.305
		c31.989,0,58.161-26.173,58.161-58.162S233.715,95.78,201.726,95.78L161.421,95.78L161.421,95.78z"/>
	<path style="fill:#E6E6E6;" d="M259.887,153.941c0,31.989-26.172,58.162-58.161,58.162h-40.305v69.385h-36.352V95.78h36.352h40.305
		C233.715,95.78,259.887,121.953,259.887,153.941L259.887,153.941z M156,33.333L122.666,9.999L89.333,33.333L55.999,10V502
		l33.334-23.333L122.666,502L156,478.667L189.333,502l33.333-23.333L256,502l33.333-23.333L322.666,502l33.333-23.333L389.333,502
		l33.333-23.333L455.999,502V10l-33.333,23.333L389.333,10l-33.334,23.332L322.666,9.999l-33.333,23.333L255.999,10l-33.333,23.333
		L189.332,10L156,33.333L156,33.333z M345.079,332.521c23.113,0,41.85,18.736,41.85,41.849s-18.736,41.849-41.85,41.849
		c-23.112,0-41.849-18.736-41.849-41.849C303.231,351.258,321.967,332.521,345.079,332.521z"/>
	<circle style="fill:#8DEF61;" cx="345.079" cy="374.37" r="41.849"/>
</g>
<path d="M460.617,1.13c-3.308-1.722-7.298-1.461-10.353,0.677l-27.599,19.318L395.068,1.808c-3.442-2.41-8.024-2.411-11.469,0
	l-27.6,19.318L328.401,1.808c-3.443-2.41-8.025-2.41-11.469,0l-27.599,19.318l-27.6-19.318c-3.443-2.41-8.025-2.41-11.469,0
	l-27.599,19.318l-27.6-19.318c-3.443-2.41-8.025-2.41-11.469,0l-27.598,19.318l-27.6-19.318c-3.443-2.41-8.025-2.41-11.469,0
	L89.333,21.126l-27.6-19.318c-3.056-2.139-7.045-2.401-10.353-0.677c-3.307,1.721-5.381,5.14-5.381,8.869V502
	c0,3.728,2.074,7.148,5.382,8.87c1.453,0.757,3.038,1.13,4.617,1.13c2.016,0,4.022-0.609,5.735-1.808l27.6-19.319l27.599,19.319
	c3.442,2.409,8.024,2.411,11.469,0l27.6-19.319l27.599,19.319c3.443,2.41,8.025,2.41,11.469,0l27.599-19.319l27.6,19.319
	c3.443,2.41,8.025,2.41,11.469,0l27.599-19.319l27.599,19.319c3.443,2.41,8.025,2.41,11.469,0l27.595-19.319l27.6,19.319
	c3.443,2.41,8.025,2.41,11.469,0l27.599-19.319l27.599,19.319c3.054,2.138,7.044,2.4,10.353,0.677
	c3.308-1.722,5.382-5.141,5.382-8.87V10C465.999,6.271,463.925,2.852,460.617,1.13z M445.999,482.793L428.4,470.474
	c-3.443-2.41-8.025-2.41-11.469,0l-27.599,19.319l-27.6-19.319c-1.722-1.205-3.728-1.808-5.734-1.808
	c-2.007,0-4.013,0.603-5.734,1.808l-27.599,19.319l-27.599-19.319c-3.442-2.409-8.024-2.411-11.469,0l-27.598,19.319L228.4,470.474
	c-3.443-2.409-8.025-2.411-11.469,0l-27.6,19.319l-27.598-19.319c-3.442-2.409-8.024-2.411-11.469,0l-27.6,19.319l-27.599-19.319
	c-3.442-2.409-8.024-2.411-11.469,0l-17.597,12.32V29.206l17.6,12.319c3.443,2.41,8.025,2.41,11.469,0l27.599-19.318l27.6,19.318
	c3.443,2.41,8.025,2.41,11.469,0l27.599-19.318l27.599,19.318c3.443,2.41,8.025,2.411,11.469,0l27.6-19.318l27.596,19.318
	c3.443,2.41,8.025,2.41,11.469,0l27.599-19.318l27.599,19.318c3.442,2.41,8.025,2.411,11.469,0l27.6-19.318l27.599,19.318
	c3.443,2.41,8.025,2.41,11.469,0l17.596-12.319V482.793z"/>
<path d="M201.726,85.78h-76.657c-5.522,0-10,4.477-10,10V281.49c0,5.523,4.478,10,10,10h36.352c5.523,0,10-4.477,10-10v-59.385
	h30.305c37.584,0,68.161-30.577,68.161-68.162S239.31,85.78,201.726,85.78z M201.726,202.104h-40.305c-5.522,0-10,4.477-10,10
	v59.385h-16.352V105.78h66.656c26.556,0,48.161,21.605,48.161,48.162C249.887,180.498,228.281,202.104,201.726,202.104z"/>
<path d="M201.726,122.13h-40.305c-5.522,0-10,4.477-10,10v43.622c0,5.523,4.478,10,10,10h40.305c17.54,0,31.811-14.27,31.811-31.811
	C233.536,136.401,219.266,122.13,201.726,122.13z M201.726,165.753h-30.305v-23.622h30.305c6.402,0,11.811,5.409,11.811,11.811
	C213.536,160.344,208.128,165.753,201.726,165.753z"/>
<path d="M386.929,271.486h-47.626c-5.522,0-10,4.477-10,10s4.478,10,10,10h47.626c5.522,0,10-4.477,10-10
	C396.929,275.963,392.451,271.486,386.929,271.486z"/>
<path d="M308.331,291.49h0.256c5.522,0,10-4.477,10-10s-4.478-10-10-10h-0.256c-5.523,0-10,4.477-10,10
	S302.809,291.49,308.331,291.49z"/>
<path d="M172.695,406.216h-47.626c-5.522,0-10,4.477-10,10s4.478,10,10,10h47.626c5.523,0,10-4.477,10-10
	S178.218,406.216,172.695,406.216z"/>
<path d="M203.667,406.22h-0.256c-5.522,0-10,4.477-10,10s4.478,10,10,10h0.256c5.522,0,10-4.477,10-10S209.19,406.22,203.667,406.22
	z"/>
<path d="M345.079,322.521c-28.59,0-51.849,23.26-51.849,51.85s23.259,51.849,51.849,51.849s51.85-23.259,51.85-51.849
	S373.669,322.521,345.079,322.521z M345.079,406.22c-17.561,0-31.849-14.288-31.849-31.849c0-17.562,14.287-31.85,31.849-31.85
	s31.85,14.288,31.85,31.85C376.929,391.932,362.641,406.22,345.079,406.22z"/>
<path d="M386.929,85.78h-47.626c-5.522,0-10,4.477-10,10s4.478,10,10,10h47.626c5.522,0,10-4.477,10-10
	C396.929,90.257,392.451,85.78,386.929,85.78z"/>
<g>
</g>
<g>
</g>
<g>
</g>
<g>
</g>
<g>
</g>
<g>
</g>
<g>
</g>
<g>
</g>
<g>
</g>
<g>
</g>
<g>
</g>
<g>
</g>
<g>
</g>
<g>
</g>
<g>
</g>
</svg>
