<svg height="512" viewBox="0 0 512 512" width="512" xmlns="http://www.w3.org/2000/svg"><g id="Filled_outline" data-name="Filled outline"><path d="m152 248h92a20 20 0 0 1 20 20 20 20 0 0 1 -20 20h-108a0 0 0 0 1 0 0v-24a16 16 0 0 1 16-16z" fill="#d6d6d4"/><path d="m192 248h52a20 20 0 0 1 20 20 20 20 0 0 1 -20 20h-68a0 0 0 0 1 0 0v-24a16 16 0 0 1 16-16z" fill="#c7c7c5"/><path d="m433.024 88c-.035 0-.067.01-.1.01v-.01h-144.354v.01a39 39 0 0 0 -27.449 11.374 60.773 60.773 0 0 0 -17.514 49.6l2.017 18.548-37.25 160.468h-120.295a32 32 0 1 0 0 64h289.763a48.091 48.091 0 0 0 47.086-38.112l46.222-219.014a38.893 38.893 0 0 0 -38.126-46.874z" fill="#348fd9"/><path d="m201.02 392-16 56h-68a20 20 0 0 0 -20 20 20 20 0 0 0 20 20h100l24-96z" fill="#d6d6d4"/><path d="m273.02 488h-156a20 20 0 0 1 -20-20 20 20 0 0 1 20-20h156z" fill="#e0e0de"/><path d="m345.02 392-16 56h-68a20 20 0 0 0 -20 20 20 20 0 0 0 20 20h100l24-96z" fill="#e0e0de"/><path d="m389.869 167.533-2.02-18.547a60.728 60.728 0 0 1 17.537-49.6 39.09 39.09 0 0 1 27.587-11.386 38.906 38.906 0 0 1 38.176 46.873l-46.282 219.016a48.138 48.138 0 0 1 -47.147 38.111h-145.6a32.06 32.06 0 0 1 -32.12-32 32.06 32.06 0 0 1 32.12-32h120.452z" fill="#2d7dbf"/><path d="m296 248h92a20 20 0 0 1 20 20 20 20 0 0 1 -20 20h-108a0 0 0 0 1 0 0v-24a16 16 0 0 1 16-16z" fill="#d6d6d4"/><path d="m336 248h52a20 20 0 0 1 20 20 20 20 0 0 1 -20 20h-68a0 0 0 0 1 0 0v-24a16 16 0 0 1 16-16z" fill="#c7c7c5"/><path d="m16 480h480v16h-480z" fill="#d6d6d4"/><rect fill="#4db7e5" height="192" rx="40.02" width="128" x="40" y="24"/><path d="m80 144a24 24 0 0 0 -24-24h-16v56h48a16 16 0 0 0 16-16 16 16 0 0 0 -16-16z" fill="#e0e0de"/><path d="m136.02 175.98v-111.96a40.02 40.02 0 0 0 -40.02-40.02h32a40.02 40.02 0 0 1 40.02 40.02v111.96a40.02 40.02 0 0 1 -40.02 40.02h-32a40.02 40.02 0 0 0 40.02-40.02z" fill="#d6d6d4"/><path d="m127.98 24h-47.96a40.018 40.018 0 0 0 -40.02 40h128a40.018 40.018 0 0 0 -40.02-40z" fill="#e0e0de"/><path d="m136 64h32v16h-32z" fill="#cfcfcd"/><path d="m201.02 392-4.571 16h40.571l4-16z" fill="#cfcfcd"/><path d="m385.02 392h-40l-4.571 16h40.571z" fill="#d6d6d4"/><path d="m80.02 224h47.96a48.074 48.074 0 0 0 48.02-48.02v-111.96a48.074 48.074 0 0 0 -48.02-48.02h-47.96a48.074 48.074 0 0 0 -48.02 48.02v111.96a48.074 48.074 0 0 0 48.02 48.02zm0-16a32.076 32.076 0 0 1 -31-24h38.98a24 24 0 0 0 0-48h-1.013a32.056 32.056 0 0 0 -30.987-24h-8v-40h80v104a32.036 32.036 0 0 1 -32 32zm-32.02-40v-40h8a16.019 16.019 0 0 1 16 16 8 8 0 0 0 8 8h8a8 8 0 0 1 0 16zm83.961 39.744a47.8 47.8 0 0 0 12.039-31.744v-104h16v103.98a32.062 32.062 0 0 1 -28.039 31.764zm-51.941-175.744h47.96a32.076 32.076 0 0 1 31 24h-109.962a32.076 32.076 0 0 1 31.002-24z"/><path d="m371.265 480 20.442-81.765a56.359 56.359 0 0 0 41.048-42.694l46.222-219.016a46.892 46.892 0 0 0 -45.954-56.525q-.05 0-.1 0h-144.353c-.152 0-.3 0-.455.013a46.708 46.708 0 0 0 -32.645 13.707 68.452 68.452 0 0 0 -19.818 56.13l1.87 17.2-16.934 72.95h-68.588a24.028 24.028 0 0 0 -24 24v24a8 8 0 0 0 8 8h71.59l-5.571 24h-113.94a40 40 0 1 0 0 80h102.355l-11.428 40h-61.966a28.175 28.175 0 0 0 -19.817 8.184 28.038 28.038 0 0 0 -5.476 31.816h-75.747v16h480v-16zm62.017-384a30.89 30.89 0 0 1 30.04 37.22l-46.222 219.016a40.271 40.271 0 0 1 -39.257 31.764h-145.683a24 24 0 1 1 0-48h120.4a8 8 0 0 0 7.793-6.192l7.847-33.808h19.8a28 28 0 0 0 0-56h-6.8l16.353-70.185c.039-.166.072-.332.1-.5l.08-.48a7.99 7.99 0 0 0 .063-2.173l-2-18.57a52.571 52.571 0 0 1 15.193-43.044 31.066 31.066 0 0 1 21.949-9.048c.115 0 .224.006.344 0zm-196 344 10-40h87.128l-11.429 40zm74.718-160h-24v-16a8.009 8.009 0 0 1 8-8h17.376a23.885 23.885 0 0 0 -1.376 8zm16-16a8.009 8.009 0 0 1 8-8h52a12 12 0 0 1 0 24h-60zm-74.425-97.331-2.016-18.549a52.528 52.528 0 0 1 15.21-43.072 30.809 30.809 0 0 1 21.821-9.038c.125 0 .25 0 .374-.01h108.567a68.442 68.442 0 0 0 -17.645 53.817l1.1 10.183h-107.966v16h106.661l-14.911 64h-68.77a24.028 24.028 0 0 0 -24 24v24a8 8 0 0 0 8 8h71.771l-5.571 24h-114.04a40.343 40.343 0 0 0 -14.322 2.611l35.577-153.269a7.985 7.985 0 0 0 .16-2.673zm-109.575 97.331a8.009 8.009 0 0 1 8-8h17.376a23.885 23.885 0 0 0 -1.376 8v16h-24zm40 16v-16a8.009 8.009 0 0 1 8-8h24.875l-5.575 24zm-120 80a24.067 24.067 0 0 1 24.079-24h111.97a39.8 39.8 0 0 0 0 48h-111.97a24.067 24.067 0 0 1 -24.079-24zm143.074 40h23.72l-10 40h-25.148zm-90.034 80a12.026 12.026 0 0 1 -8.565-20.441 12.214 12.214 0 0 1 8.565-3.559h118.687a27.951 27.951 0 0 0 0 24zm143.98 0a12 12 0 1 1 0-24h68a8 8 0 0 0 7.692-5.8l14.342-50.2h23.719l-20 80z"/></g></svg>